<svg width="26" height="26" viewBox="0 0 26 26" fill="none" xmlns="http://www.w3.org/2000/svg">
<circle cx="13" cy="13" r="13" fill="white"/>
<path d="M13 25C19.6274 25 25 19.6274 25 13C25 6.37258 19.6274 1 13 1C6.37258 1 1 6.37258 1 13C1 19.6274 6.37258 25 13 25Z" fill="#F0F0F0"/>
<path d="M7.78223 17.1739L8.82571 24.2537C10.1257 24.7361 11.5318 25 12.9996 25C18.1591 25 22.5577 21.7435 24.2532 17.1739H7.78223Z" fill="black"/>
<path d="M7.78223 8.82611L8.82571 1.7463C10.1257 1.26391 11.5318 1 12.9996 1C18.1591 1 22.5577 4.2565 24.2532 8.82611H7.78223Z" fill="#6DA544"/>
<path d="M1 13C1 18.1596 4.25655 22.5581 8.82611 24.2536V1.7464C4.25655 3.44191 1 7.84043 1 13Z" fill="#A2001D"/>
</svg>
