<svg width="28" height="28" viewBox="0 0 28 28" fill="none" xmlns="http://www.w3.org/2000/svg">
<path d="M18 12C18 10.4087 17.3679 8.88258 16.2426 7.75736C15.1174 6.63214 13.5913 6 12 6C10.4087 6 8.88258 6.63214 7.75736 7.75736C6.63214 8.88258 6 10.4087 6 12C6 19 3 21 3 21H21C21 21 18 19 18 12Z" stroke="#151515" stroke-width="2" stroke-linecap="round" stroke-linejoin="round"/>
<path d="M13.7295 25C13.5537 25.3031 13.3014 25.5547 12.9978 25.7295C12.6941 25.9044 12.3499 25.9965 11.9995 25.9965C11.6492 25.9965 11.3049 25.9044 11.0013 25.7295C10.6977 25.5547 10.4453 25.3031 10.2695 25" stroke="#151515" stroke-width="2" stroke-linecap="round" stroke-linejoin="round"/>
<g filter="url(#filter0_d_1764_4985)">
<circle cx="19" cy="9" r="5" fill="#E95534"/>
<circle cx="19" cy="9" r="4.5" stroke="white"/>
</g>
<defs>
<filter id="filter0_d_1764_4985" x="10" y="0" width="18" height="18" filterUnits="userSpaceOnUse" color-interpolation-filters="sRGB">
<feFlood flood-opacity="0" result="BackgroundImageFix"/>
<feColorMatrix in="SourceAlpha" type="matrix" values="0 0 0 0 0 0 0 0 0 0 0 0 0 0 0 0 0 0 127 0" result="hardAlpha"/>
<feOffset/>
<feGaussianBlur stdDeviation="2"/>
<feColorMatrix type="matrix" values="0 0 0 0 0.9125 0 0 0 0 0.332447 0 0 0 0 0.205313 0 0 0 0.5 0"/>
<feBlend mode="normal" in2="BackgroundImageFix" result="effect1_dropShadow_1764_4985"/>
<feBlend mode="normal" in="SourceGraphic" in2="effect1_dropShadow_1764_4985" result="shape"/>
</filter>
</defs>
</svg>
