<svg width="24" height="24" viewBox="0 0 24 24" fill="none" xmlns="http://www.w3.org/2000/svg">
<path d="M13.2605 3.00001C8.17052 2.86001 4.00052 6.95001 4.00052 12H2.21052C1.76052 12 1.54052 12.54 1.86052 12.85L4.65052 15.65C4.85052 15.85 5.16052 15.85 5.36052 15.65L8.15052 12.85C8.21962 12.7795 8.26631 12.6901 8.2847 12.5932C8.30309 12.4962 8.29236 12.3959 8.25386 12.305C8.21537 12.2141 8.15082 12.1366 8.06837 12.0824C7.98591 12.0281 7.88923 11.9994 7.79052 12H6.00052C6.00052 8.10001 9.18052 4.95001 13.1005 5.00001C16.8205 5.05001 19.9505 8.18001 20.0005 11.9C20.0505 15.81 16.9005 19 13.0005 19C11.3905 19 9.90052 18.45 8.72052 17.52C8.52898 17.3691 8.28867 17.2939 8.04529 17.3087C7.8019 17.3234 7.57243 17.4271 7.40052 17.6C6.98052 18.02 7.01052 18.73 7.48052 19.09C9.05164 20.3325 10.9975 21.0058 13.0005 21C18.0505 21 22.1405 16.83 22.0005 11.74C21.8705 7.05001 17.9505 3.13001 13.2605 3.00001ZM12.7505 8.00001C12.3405 8.00001 12.0005 8.34001 12.0005 8.75001V12.43C12.0005 12.78 12.1905 13.11 12.4905 13.29L15.6105 15.14C15.9705 15.35 16.4305 15.23 16.6405 14.88C16.8505 14.52 16.7305 14.06 16.3805 13.85L13.5005 12.14V8.74001C13.5005 8.34001 13.1605 8.00001 12.7505 8.00001Z" fill="#151515"/>
</svg>
