<svg width="20" height="20" viewBox="0 0 20 20" fill="none" xmlns="http://www.w3.org/2000/svg">
<path d="M10 20C15.5228 20 20 15.5228 20 10C20 4.47715 15.5228 0 10 0C4.47715 0 0 4.47715 0 10C0 15.5228 4.47715 20 10 20Z" fill="#29CD7E"/>
<path d="M15.4379 7.12472L8.93795 14.2497C8.50043 14.7497 7.75046 14.7497 7.31294 14.2497L4.56294 11.1872C4.18796 10.7497 4.18796 10.0622 4.62543 9.62472C5.06295 9.24973 5.75043 9.24973 6.18795 9.68721L8.12545 11.8747L13.8129 5.68722C14.2504 5.24971 14.9379 5.18722 15.3754 5.62473C15.8129 5.99972 15.8129 6.74973 15.4379 7.12472Z" fill="white"/>
</svg>
