<svg width="28" height="28" viewBox="0 0 28 28" fill="none" xmlns="http://www.w3.org/2000/svg">
<circle cx="14" cy="14" r="14" fill="url(#paint0_linear_1766_3878)"/>
<path d="M18.125 13.9999C19.219 13.9999 20.2682 14.4345 21.0418 15.2081C21.8154 15.9817 22.25 17.0309 22.25 18.1249C22.25 19.219 21.8154 20.2682 21.0418 21.0418C20.2682 21.8154 19.219 22.2499 18.125 22.2499C17.031 22.2499 15.9818 21.8154 15.2082 21.0418C14.4346 20.2682 14 19.219 14 18.1249C14 17.0309 14.4346 15.9817 15.2082 15.2081C15.9818 14.4345 17.031 13.9999 18.125 13.9999ZM18.125 15.4999L18.0575 15.5059C17.9826 15.5196 17.9136 15.5558 17.8597 15.6097C17.8059 15.6635 17.7697 15.7325 17.756 15.8074L17.75 15.8749V17.7499H15.8735L15.806 17.7567C15.7311 17.7704 15.6621 17.8066 15.6082 17.8604C15.5544 17.9143 15.5182 17.9833 15.5045 18.0582L15.4985 18.1257L15.5045 18.1932C15.5182 18.2681 15.5544 18.3371 15.6082 18.391C15.6621 18.4448 15.7311 18.481 15.806 18.4947L15.8735 18.5007H17.75V20.3779L17.756 20.4454C17.7697 20.5204 17.8059 20.5894 17.8597 20.6432C17.9136 20.6971 17.9826 20.7333 18.0575 20.7469L18.125 20.7529L18.1925 20.7469C18.2674 20.7333 18.3364 20.6971 18.3903 20.6432C18.4441 20.5894 18.4803 20.5204 18.494 20.4454L18.5 20.3779V18.4999H20.378L20.4455 18.4947C20.5204 18.481 20.5894 18.4448 20.6433 18.391C20.6971 18.3371 20.7333 18.2681 20.747 18.1932L20.753 18.1257L20.747 18.0582C20.7333 17.9832 20.697 17.9141 20.643 17.8602C20.589 17.8064 20.5198 17.7702 20.4447 17.7567L20.3773 17.7507H18.5V15.8757L18.494 15.8082C18.4804 15.7331 18.4443 15.664 18.3905 15.61C18.3366 15.556 18.2675 15.5197 18.1925 15.5059L18.125 15.4999ZM15.4438 6.87795C15.7378 6.87792 16.0267 6.95473 16.2819 7.10075C16.5371 7.24677 16.7498 7.45695 16.8988 7.71045L17.5093 8.7507H19.0625C19.7088 8.7507 20.3287 9.0074 20.7858 9.46436C21.2429 9.92132 21.4998 10.5411 21.5 11.1874V14.6074C21.1655 14.2862 20.7869 14.0143 20.3757 13.7997L20.375 11.1874C20.375 10.8394 20.2367 10.5055 19.9906 10.2594C19.7444 10.0132 19.4106 9.87495 19.0625 9.87495H17.1875C17.0894 9.875 16.9931 9.84942 16.908 9.80074C16.8228 9.75206 16.7519 9.68198 16.7022 9.59745L15.9283 8.2797C15.8786 8.19527 15.8078 8.12526 15.7229 8.07659C15.6379 8.02792 15.5417 8.00228 15.4438 8.0022H12.5915C12.5094 8.00226 12.4284 8.02029 12.354 8.05501C12.2796 8.08974 12.2137 8.14031 12.161 8.2032L12.1122 8.2707L11.2925 9.60645C11.2422 9.68844 11.1718 9.75617 11.0879 9.80318C11.004 9.85019 10.9094 9.8749 10.8133 9.87495H8.93825C8.76583 9.87485 8.59507 9.90873 8.43575 9.97464C8.27642 10.0406 8.13164 10.1372 8.00969 10.2591C7.88773 10.381 7.79099 10.5257 7.72498 10.685C7.65897 10.8443 7.625 11.015 7.625 11.1874V18.3124C7.625 19.0369 8.213 19.6249 8.9375 19.6249H13.4847C13.6145 20.0247 13.7938 20.4027 14.0165 20.7499H8.9375C8.29103 20.7499 7.67105 20.4931 7.21393 20.036C6.75681 19.5789 6.5 18.9589 6.5 18.3124V11.1874C6.5 10.541 6.75681 9.92099 7.21393 9.46387C7.67105 9.00675 8.29103 8.74995 8.9375 8.74995H10.4975L11.1537 7.68195C11.3046 7.43611 11.516 7.23306 11.7677 7.09217C12.0194 6.95129 12.3031 6.87727 12.5915 6.8772H15.4438V6.87795ZM14 10.9999C14.7135 10.9999 15.4087 11.2259 15.9858 11.6455C16.5629 12.0651 16.9923 12.6567 17.2123 13.3354C16.8373 13.4067 16.4773 13.5207 16.1375 13.6722C15.9713 13.1629 15.6288 12.7297 15.1716 12.4505C14.7143 12.1712 14.1725 12.0644 13.6435 12.1491C13.1145 12.2338 12.6332 12.5046 12.286 12.9126C11.9389 13.3207 11.7488 13.8392 11.75 14.3749C11.75 15.4474 12.5 16.3437 13.5035 16.5702C13.3835 16.9267 13.3054 17.2959 13.271 17.6704C12.4609 17.4889 11.7461 17.0151 11.2633 16.3398C10.7805 15.6645 10.5634 14.8349 10.6536 14.0097C10.7438 13.1844 11.1349 12.4213 11.7523 11.8662C12.3696 11.3111 13.1698 11.003 14 11.0007V10.9999Z" fill="white"/>
<defs>
<linearGradient id="paint0_linear_1766_3878" x1="-3.19665e-08" y1="14" x2="27.5142" y2="10.3441" gradientUnits="userSpaceOnUse">
<stop stop-color="#D6A238"/>
<stop offset="1" stop-color="#96481B"/>
</linearGradient>
</defs>
</svg>
