<svg width="20" height="20" viewBox="0 0 20 20" fill="none" xmlns="http://www.w3.org/2000/svg">
<circle cx="10" cy="10" r="10" fill="#96481B"/>
<path d="M12.625 6.5L10 9.125L7.375 6.5C7.25897 6.38397 7.10159 6.31878 6.9375 6.31878C6.77341 6.31878 6.61603 6.38397 6.5 6.5C6.38397 6.61603 6.31878 6.77341 6.31878 6.9375C6.31878 7.10159 6.38397 7.25897 6.5 7.375L9.125 10L6.5 12.625C6.38397 12.741 6.31878 12.8984 6.31878 13.0625C6.31878 13.2266 6.38397 13.384 6.5 13.5C6.61603 13.616 6.77341 13.6812 6.9375 13.6812C7.10159 13.6812 7.25897 13.616 7.375 13.5L10 10.875L12.625 13.5C12.741 13.616 12.8984 13.6812 13.0625 13.6812C13.2266 13.6812 13.384 13.616 13.5 13.5C13.616 13.384 13.6812 13.2266 13.6812 13.0625C13.6812 12.8984 13.616 12.741 13.5 12.625L10.875 10L13.5 7.375C13.616 7.25897 13.6812 7.10159 13.6812 6.9375C13.6812 6.77341 13.616 6.61603 13.5 6.5C13.384 6.38397 13.2266 6.31878 13.0625 6.31878C12.8984 6.31878 12.741 6.38397 12.625 6.5Z" fill="white"/>
</svg>
