<svg width="14" height="14" viewBox="0 0 14 14" fill="none" xmlns="http://www.w3.org/2000/svg">
<circle cx="7" cy="7" r="7" fill="white"/>
<path d="M7 0C5.61553 0 4.26215 0.410543 3.11101 1.17971C1.95987 1.94888 1.06266 3.04213 0.532846 4.32121C0.00303299 5.6003 -0.13559 7.00776 0.134506 8.36563C0.404603 9.7235 1.07129 10.9708 2.05026 11.9497C3.02922 12.9287 4.2765 13.5954 5.63437 13.8655C6.99224 14.1356 8.3997 13.997 9.67879 13.4672C10.9579 12.9373 12.0511 12.0401 12.8203 10.889C13.5895 9.73784 14 8.38447 14 7C14 6.08075 13.8189 5.17049 13.4672 4.32121C13.1154 3.47194 12.5998 2.70026 11.9497 2.05025C11.2997 1.40024 10.5281 0.884626 9.67879 0.532843C8.82951 0.18106 7.91925 0 7 0ZM7 10.5C6.86156 10.5 6.72622 10.4589 6.6111 10.382C6.49599 10.3051 6.40627 10.1958 6.35329 10.0679C6.3003 9.93997 6.28644 9.79922 6.31345 9.66343C6.34046 9.52765 6.40713 9.40292 6.50503 9.30502C6.60292 9.20713 6.72765 9.14046 6.86344 9.11345C6.99923 9.08644 7.13997 9.1003 7.26788 9.15328C7.39579 9.20626 7.50511 9.29598 7.58203 9.4111C7.65895 9.52621 7.7 9.66155 7.7 9.8C7.7 9.98565 7.62625 10.1637 7.49498 10.295C7.3637 10.4262 7.18565 10.5 7 10.5ZM7.7 7.7C7.7 7.88565 7.62625 8.0637 7.49498 8.19497C7.3637 8.32625 7.18565 8.4 7 8.4C6.81435 8.4 6.6363 8.32625 6.50503 8.19497C6.37375 8.0637 6.3 7.88565 6.3 7.7V4.2C6.3 4.01435 6.37375 3.8363 6.50503 3.70502C6.6363 3.57375 6.81435 3.5 7 3.5C7.18565 3.5 7.3637 3.57375 7.49498 3.70502C7.62625 3.8363 7.7 4.01435 7.7 4.2V7.7Z" fill="#E95534"/>
</svg>
