<svg width="24" height="24" viewBox="0 0 24 24" fill="none" xmlns="http://www.w3.org/2000/svg">
<path d="M4.71019 3.29006C4.61695 3.19682 4.50626 3.12286 4.38443 3.0724C4.26261 3.02194 4.13204 2.99597 4.00019 2.99597C3.86833 2.99597 3.73776 3.02194 3.61594 3.0724C3.49411 3.12286 3.38342 3.19682 3.29019 3.29006C3.10188 3.47837 2.99609 3.73376 2.99609 4.00006C2.99609 4.26637 3.10188 4.52176 3.29019 4.71006L8.92019 10.3401C8.56399 11.0027 8.43077 11.7624 8.54027 12.5067C8.64978 13.251 8.99618 13.9402 9.52812 14.4721C10.0601 15.0041 10.7493 15.3505 11.4935 15.46C12.2378 15.5695 12.9976 15.4363 13.6602 15.0801L19.2902 20.7101C19.3832 20.8038 19.4938 20.8782 19.6156 20.929C19.7375 20.9797 19.8682 21.0059 20.0002 21.0059C20.1322 21.0059 20.2629 20.9797 20.3848 20.929C20.5066 20.8782 20.6172 20.8038 20.7102 20.7101C20.8039 20.6171 20.8783 20.5065 20.9291 20.3846C20.9798 20.2628 21.006 20.1321 21.006 20.0001C21.006 19.8681 20.9798 19.7373 20.9291 19.6155C20.8783 19.4936 20.8039 19.383 20.7102 19.2901L4.71019 3.29006ZM12.0002 13.5001C11.6024 13.5001 11.2208 13.342 10.9395 13.0607C10.6582 12.7794 10.5002 12.3979 10.5002 12.0001V11.9301L12.0602 13.4901L12.0002 13.5001Z" fill="#151515"/>
<path d="M12.2201 17C7.92007 17.1 5.10007 13.41 4.22007 12C4.84654 11.0007 5.59943 10.0865 6.46007 9.28L5.00007 7.87C3.87139 8.93347 2.90448 10.1564 2.13007 11.5C2.0423 11.652 1.99609 11.8245 1.99609 12C1.99609 12.1755 2.0423 12.348 2.13007 12.5C2.76007 13.59 6.13007 19 12.0201 19H12.2701C13.3776 18.9671 14.4708 18.7404 15.5001 18.33L13.9201 16.75C13.3644 16.8962 12.7943 16.98 12.2201 17Z" fill="#151515"/>
<path d="M21.87 11.5C21.23 10.39 17.7 4.81999 11.73 4.99999C10.6225 5.03285 9.52924 5.25961 8.5 5.66999L10.08 7.24999C10.6356 7.10382 11.2058 7.01997 11.78 6.99999C16.07 6.88999 18.89 10.59 19.78 12C19.1381 13.0023 18.3682 13.9167 17.49 14.72L19 16.13C20.1428 15.0693 21.1234 13.8462 21.91 12.5C21.9918 12.3445 22.0311 12.1702 22.0241 11.9946C22.0171 11.8191 21.9639 11.6485 21.87 11.5Z" fill="#151515"/>
</svg>
