<svg width="26" height="26" viewBox="0 0 26 26" fill="none" xmlns="http://www.w3.org/2000/svg">
<circle cx="13" cy="13" r="13" fill="white"/>
<path d="M13 25C19.6274 25 25 19.6274 25 13C25 6.37258 19.6274 1 13 1C6.37258 1 1 6.37258 1 13C1 19.6274 6.37258 25 13 25Z" fill="#F0F0F0"/>
<path d="M3.48032 5.69415C2.53771 6.92054 1.82695 8.33406 1.41309 9.86964H7.6558L3.48032 5.69415Z" fill="#0052B4"/>
<path d="M24.5864 9.86965C24.1725 8.33412 23.4617 6.9206 22.5191 5.69421L18.3438 9.86965H24.5864Z" fill="#0052B4"/>
<path d="M1.41309 16.1305C1.82699 17.666 2.53776 19.0795 3.48032 20.3059L7.65566 16.1305H1.41309Z" fill="#0052B4"/>
<path d="M20.3053 3.48067C19.0789 2.53806 17.6655 1.8273 16.1299 1.41339V7.65606L20.3053 3.48067Z" fill="#0052B4"/>
<path d="M5.69434 22.5193C6.92073 23.4619 8.33424 24.1727 9.86977 24.5866V18.344L5.69434 22.5193Z" fill="#0052B4"/>
<path d="M9.86973 1.41339C8.3342 1.8273 6.92068 2.53806 5.69434 3.48063L9.86973 7.65602V1.41339Z" fill="#0052B4"/>
<path d="M16.1299 24.5866C17.6654 24.1727 19.0789 23.4619 20.3053 22.5194L16.1299 18.344V24.5866Z" fill="#0052B4"/>
<path d="M18.3438 16.1305L22.5191 20.3059C23.4617 19.0796 24.1725 17.666 24.5864 16.1305H18.3438Z" fill="#0052B4"/>
<path d="M24.8984 11.4348H14.5653H14.5652V1.10158C14.0529 1.03488 13.5305 1 13 1C12.4694 1 11.9471 1.03488 11.4348 1.10158V11.4347V11.4348H1.10158C1.03488 11.9471 1 12.4695 1 13C1 13.5306 1.03488 14.0529 1.10158 14.5652H11.4347H11.4348V24.8984C11.9471 24.9651 12.4694 25 13 25C13.5305 25 14.0529 24.9652 14.5652 24.8984V14.5653V14.5652H24.8984C24.9651 14.0529 25 13.5306 25 13C25 12.4695 24.9651 11.9471 24.8984 11.4348V11.4348Z" fill="#D80027"/>
<path d="M16.1309 16.1305L21.4857 21.4853C21.732 21.2391 21.9669 20.9817 22.191 20.7149L17.6066 16.1304H16.1309V16.1305Z" fill="#D80027"/>
<path d="M9.86951 16.1305H9.86941L4.51465 21.4853C4.76084 21.7315 5.01823 21.9665 5.28504 22.1906L9.86951 17.6061V16.1305Z" fill="#D80027"/>
<path d="M9.86976 9.86966V9.86957L4.51495 4.51471C4.26866 4.7609 4.03373 5.01829 3.80957 5.2851L8.39409 9.86962H9.86976V9.86966Z" fill="#D80027"/>
<path d="M16.1309 9.86963L21.4857 4.51472C21.2395 4.26843 20.9821 4.0335 20.7153 3.80939L16.1309 8.39391V9.86963Z" fill="#D80027"/>
</svg>
