<svg width="30" height="30" viewBox="0 0 30 30" fill="none" xmlns="http://www.w3.org/2000/svg">
<path fill-rule="evenodd" clip-rule="evenodd" d="M0.576923 7.5C0.729933 7.5 0.876675 7.43922 0.984869 7.33102C1.09306 7.22283 1.15385 7.07609 1.15385 6.92308V1.15385H6.92308C7.07609 1.15385 7.22283 1.09306 7.33102 0.984869C7.43922 0.876675 7.5 0.729933 7.5 0.576923C7.5 0.423914 7.43922 0.277171 7.33102 0.168977C7.22283 0.0607829 7.07609 0 6.92308 0H0.576923C0.423914 0 0.277171 0.0607829 0.168977 0.168977C0.0607829 0.277171 0 0.423914 0 0.576923V6.92308C0 7.07609 0.0607829 7.22283 0.168977 7.33102C0.277171 7.43922 0.423914 7.5 0.576923 7.5ZM7.26319 8.76928C7.32398 8.81564 7.39337 8.84945 7.46734 8.86876C7.5413 8.88806 7.61837 8.89248 7.69406 8.88174C7.76975 8.87101 7.84254 8.84533 7.90822 8.80622C7.9739 8.76711 8.03116 8.71533 8.07665 8.6539C9.16643 7.20087 10.6858 6.12755 12.4194 5.58599C14.1531 5.04443 16.0132 5.06209 17.7363 5.63645C19.4594 6.21081 20.9581 7.31276 22.0201 8.78621C23.0821 10.2597 23.6536 12.0299 23.6536 13.8462V16.7308C23.6536 16.8838 23.7144 17.0306 23.8225 17.1388C23.9307 17.247 24.0775 17.3077 24.2305 17.3077C24.3835 17.3077 24.5302 17.247 24.6384 17.1388C24.7466 17.0306 24.8074 16.8838 24.8074 16.7308V13.8462C24.809 11.7863 24.162 9.77811 22.9581 8.10658C21.7542 6.43505 20.0546 5.18502 18.1003 4.5338C16.146 3.88259 14.0363 3.86324 12.0703 4.47851C10.1044 5.09378 8.38215 6.31242 7.14781 7.96159C7.056 8.084 7.01658 8.23786 7.03822 8.38933C7.05986 8.54081 7.14079 8.67748 7.26319 8.76928ZM6.59433 21.1154C6.67026 21.1158 6.74552 21.1012 6.81581 21.0725C6.88611 21.0438 6.95004 21.0015 7.00395 20.9481L7.33856 20.6077C7.75591 20.1914 8.08695 19.6968 8.31268 19.1523C8.5384 18.6078 8.65438 18.024 8.65395 17.4346V13.8461C8.65312 12.7732 8.92435 11.7175 9.44228 10.7779C9.9602 9.83823 10.7079 9.04522 11.6155 8.47299C12.5231 7.90076 13.561 7.56799 14.6322 7.50579C15.7033 7.44358 16.7727 7.65397 17.7405 8.11728C17.8094 8.15646 17.8856 8.18103 17.9643 8.18946C18.0431 8.1979 18.1228 8.19001 18.1984 8.16629C18.274 8.14258 18.3439 8.10355 18.4038 8.05163C18.4636 7.99971 18.5121 7.93602 18.5463 7.86453C18.5805 7.79304 18.5995 7.71527 18.6023 7.63609C18.6051 7.5569 18.5915 7.47799 18.5625 7.40428C18.5334 7.33056 18.4895 7.26362 18.4334 7.20763C18.3774 7.15163 18.3104 7.10779 18.2366 7.07882C17.0933 6.53186 15.8299 6.28359 14.5646 6.35719C13.2992 6.43079 12.0732 6.82388 11.0009 7.49972C9.92867 8.17557 9.04519 9.11214 8.43299 10.222C7.82078 11.3318 7.49983 12.5787 7.5001 13.8461V17.4346C7.50105 17.8733 7.41484 18.3077 7.24648 18.7128C7.07811 19.1179 6.83094 19.4855 6.51933 19.7942L6.18471 20.1288C6.13064 20.1825 6.08772 20.2463 6.05843 20.3166C6.02914 20.3869 6.01406 20.4623 6.01406 20.5384C6.01406 20.6146 6.02914 20.69 6.05843 20.7603C6.08772 20.8306 6.13064 20.8944 6.18471 20.9481C6.23862 21.0015 6.30255 21.0438 6.37285 21.0725C6.44314 21.1012 6.5184 21.1158 6.59433 21.1154ZM21.9162 10.9374C22.3037 11.8581 22.5022 12.8473 22.4999 13.8462L22.4826 17.4174C22.4966 18.9994 22.3026 20.5763 21.9057 22.1078C21.8719 22.2336 21.7964 22.3443 21.6917 22.4219C21.5869 22.4994 21.459 22.5392 21.3287 22.5347H21.1787C21.1051 22.5153 21.036 22.4815 20.9755 22.4352C20.9149 22.389 20.8642 22.3312 20.8261 22.2652C20.788 22.1993 20.7634 22.1264 20.7536 22.0508C20.7438 21.9753 20.7491 21.8986 20.7691 21.8251C21.1551 20.3936 21.3491 18.9172 21.3461 17.4347V13.8462C21.3494 13.0016 21.182 12.165 20.8539 11.3867C20.5257 10.6085 20.0436 9.90457 19.4364 9.31738C19.3819 9.26435 19.3383 9.20109 19.3082 9.13122C19.2781 9.06135 19.2621 8.98623 19.261 8.91016C19.2599 8.83408 19.2738 8.75854 19.302 8.68785C19.3301 8.61716 19.3719 8.5527 19.4249 8.49815C19.4779 8.4436 19.5412 8.40003 19.6111 8.36993C19.6809 8.33983 19.756 8.32379 19.8321 8.32271C19.9082 8.32164 19.9837 8.33557 20.0544 8.36369C20.1251 8.39181 20.1896 8.43358 20.2441 8.48661C20.9601 9.18324 21.5287 10.0167 21.9162 10.9374ZM20.7759 23.0475C20.8517 23.0425 20.9278 23.0524 20.9998 23.0769C21.0718 23.101 21.1384 23.1391 21.1958 23.189C21.2531 23.2389 21.3 23.2996 21.3338 23.3677C21.3675 23.4358 21.3875 23.5099 21.3926 23.5857C21.3976 23.6615 21.3876 23.7376 21.3632 23.8096C21.3113 23.9596 21.2536 24.1096 21.1901 24.2653C21.146 24.3696 21.0721 24.4586 20.9777 24.5212C20.8833 24.5837 20.7726 24.6172 20.6594 24.6173C20.5819 24.6187 20.505 24.6029 20.4344 24.5711C20.2937 24.5113 20.1824 24.3982 20.1251 24.2565C20.0678 24.1148 20.069 23.9561 20.1286 23.8153C20.1805 23.6942 20.2267 23.5673 20.2671 23.4403C20.2911 23.3683 20.3292 23.3016 20.3791 23.2443C20.429 23.187 20.4898 23.1401 20.5579 23.1063C20.626 23.0726 20.7 23.0526 20.7759 23.0475ZM20.0232 15.169C20.1314 15.2772 20.1922 15.4239 20.1922 15.5769V17.4346C20.1989 20.4719 19.3339 23.4473 17.6999 26.0077C17.6478 26.0889 17.5761 26.1558 17.4914 26.2022C17.4067 26.2485 17.3118 26.2729 17.2153 26.2731C17.1047 26.2728 16.9966 26.2407 16.9037 26.1808C16.7754 26.098 16.6851 25.9677 16.6526 25.8185C16.6202 25.6692 16.6482 25.5132 16.7306 25.3846C18.2438 23.0096 19.0446 20.2507 19.0383 17.4346V15.5769C19.0383 15.4239 19.0991 15.2772 19.2073 15.169C19.3155 15.0608 19.4623 15 19.6153 15C19.7683 15 19.915 15.0608 20.0232 15.169ZM10.3846 16.1539C10.5376 16.1539 10.6844 16.0931 10.7926 15.9849C10.9008 15.8767 10.9615 15.7299 10.9615 15.5769V13.8462C10.895 12.7751 11.2566 11.7215 11.9669 10.917C12.6772 10.1126 13.678 9.62331 14.749 9.55675C15.8201 9.49019 16.8737 9.85184 17.6782 10.5621C18.4826 11.2724 18.9719 12.2732 19.0385 13.3442C19.0584 13.4973 19.1382 13.6361 19.2605 13.7302C19.3827 13.8244 19.5374 13.8661 19.6904 13.8462C19.8434 13.8263 19.9822 13.7464 20.0764 13.6242C20.1705 13.5019 20.2122 13.3473 20.1923 13.1943C20.1059 11.8172 19.4759 10.5308 18.441 9.61821C17.4061 8.70559 16.0511 8.24146 14.674 8.32791C13.297 8.41436 12.0106 9.04431 11.098 10.0792C10.1854 11.1141 9.72124 12.4691 9.80769 13.8462V15.5769C9.80769 15.7299 9.86847 15.8767 9.97667 15.9849C10.0849 16.0931 10.2316 16.1539 10.3846 16.1539ZM10.1604 17.3358C10.2325 17.3118 10.3087 17.3023 10.3845 17.3078C10.4638 17.3076 10.5422 17.3237 10.615 17.3552C10.6878 17.3867 10.7533 17.4328 10.8074 17.4908C10.8615 17.5487 10.9032 17.6171 10.9297 17.6919C10.9562 17.7666 10.967 17.846 10.9614 17.9251C10.8394 19.5563 10.1326 21.0887 8.97103 22.2405L8.24988 22.9616C8.19858 23.0223 8.13528 23.0718 8.06396 23.1069C7.99263 23.142 7.91482 23.162 7.83541 23.1656C7.756 23.1693 7.67669 23.1564 7.60247 23.128C7.52825 23.0995 7.46072 23.056 7.40411 23.0002C7.3475 22.9443 7.30303 22.8774 7.2735 22.8036C7.24398 22.7298 7.23002 22.6507 7.23251 22.5712C7.235 22.4918 7.25389 22.4137 7.28798 22.3419C7.32208 22.2701 7.37065 22.2061 7.43065 22.1539L8.12872 21.427C9.08803 20.4687 9.66974 19.1967 9.76718 17.8443C9.7723 17.7685 9.79236 17.6944 9.82619 17.6263C9.86002 17.5583 9.90697 17.4976 9.96433 17.4477C10.0217 17.3979 10.0883 17.3598 10.1604 17.3358ZM17.1405 19.6154C17.0662 19.6002 16.9897 19.5998 16.9153 19.6142C16.8409 19.6286 16.7701 19.6576 16.7068 19.6994C16.6436 19.7411 16.5893 19.795 16.5469 19.8578C16.5044 19.9206 16.4748 19.9911 16.4597 20.0654C16.0317 22.099 15.1015 23.9931 13.7539 25.575C13.6545 25.6913 13.6053 25.8423 13.6172 25.9949C13.6291 26.1474 13.7011 26.289 13.8174 26.3885C13.9337 26.4879 14.0847 26.5371 14.2373 26.5252C14.3898 26.5133 14.5314 26.4413 14.6308 26.325C16.1034 24.595 17.1207 22.5247 17.5905 20.3019C17.6065 20.2273 17.6075 20.1502 17.5935 20.0751C17.5795 20 17.5507 19.9285 17.5089 19.8647C17.467 19.8008 17.4129 19.7459 17.3497 19.7031C17.2864 19.6603 17.2153 19.6305 17.1405 19.6154ZM13.776 12.6223C13.4515 12.9469 13.2691 13.3872 13.2691 13.8462V17.4346C13.2783 18.633 13.0495 19.8212 12.5959 20.9304C12.1423 22.0396 11.473 23.0477 10.6268 23.8962C10.5732 23.9503 10.5094 23.9932 10.4391 24.0225C10.3688 24.0518 10.2933 24.0668 10.2172 24.0668C10.141 24.0668 10.0656 24.0518 9.99531 24.0225C9.92501 23.9932 9.8612 23.9503 9.80757 23.8962C9.75349 23.8425 9.71057 23.7787 9.68128 23.7084C9.65199 23.6381 9.63691 23.5627 9.63691 23.4866C9.63691 23.4104 9.65199 23.335 9.68128 23.2647C9.71057 23.1944 9.75349 23.1306 9.80757 23.077C10.5479 22.337 11.1333 21.4569 11.5295 20.4881C11.9257 19.5194 12.1249 18.4813 12.1153 17.4346V13.8462C12.1153 13.0811 12.4192 12.3474 12.9601 11.8065C13.5011 11.2655 14.2348 10.9616 14.9999 10.9616C15.7649 10.9616 16.4986 11.2655 17.0396 11.8065C17.5806 12.3474 17.8845 13.0811 17.8845 13.8462V17.4346V17.9308C17.8722 18.0838 17.7997 18.2257 17.6829 18.3252C17.566 18.4248 17.4144 18.4738 17.2614 18.4616C17.1084 18.4493 16.9665 18.3768 16.867 18.26C16.7674 18.1431 16.7184 17.9915 16.7306 17.8385V17.4346V13.8462C16.7306 13.3872 16.5483 12.9469 16.2237 12.6223C15.8991 12.2978 15.4589 12.1154 14.9999 12.1154C14.5408 12.1154 14.1006 12.2978 13.776 12.6223ZM11.9133 24.1557C11.7575 24.3403 11.5902 24.5134 11.4171 24.6865C11.3631 24.7401 11.3201 24.8039 11.2909 24.8742C11.2616 24.9445 11.2465 25.02 11.2465 25.0961C11.2465 25.1723 11.2616 25.2477 11.2909 25.318C11.3201 25.3883 11.3631 25.4521 11.4171 25.5057C11.4708 25.5598 11.5346 25.6027 11.6049 25.632C11.6752 25.6613 11.7506 25.6764 11.8268 25.6764C11.9029 25.6764 11.9783 25.6613 12.0486 25.632C12.1189 25.6027 12.1827 25.5598 12.2364 25.5057C12.3021 25.44 12.366 25.3742 12.4294 25.3088L12.4295 25.3087C12.5551 25.1792 12.6791 25.0515 12.8133 24.9288C12.9127 24.8125 12.9619 24.6615 12.95 24.5089C12.9381 24.3564 12.8661 24.2148 12.7498 24.1153C12.6335 24.0159 12.4825 23.9667 12.33 23.9786C12.1774 23.9905 12.0358 24.0625 11.9364 24.1788L11.9133 24.1557ZM15.5772 17.4347C15.5794 19.5708 14.9795 21.6643 13.8464 23.4751C13.7653 23.6051 13.6359 23.6976 13.4866 23.7323C13.3373 23.7669 13.1803 23.7408 13.0503 23.6597C12.9202 23.5786 12.8277 23.4491 12.7931 23.2998C12.7584 23.1505 12.7845 22.9936 12.8656 22.8635C13.8861 21.2369 14.4261 19.3549 14.4233 17.4347V13.8462C14.4233 13.6932 14.4841 13.5465 14.5923 13.4383C14.7005 13.3301 14.8472 13.2693 15.0003 13.2693C15.1533 13.2693 15.3 13.3301 15.4082 13.4383C15.5164 13.5465 15.5772 13.6932 15.5772 13.8462V17.4347ZM7.00989 10.5116C6.57231 11.5689 6.34688 12.7019 6.34643 13.8462V16.7308C6.34643 16.8838 6.28565 17.0306 6.17746 17.1387C6.06926 17.2469 5.92252 17.3077 5.76951 17.3077C5.6165 17.3077 5.46976 17.2469 5.36157 17.1387C5.25337 17.0306 5.19259 16.8838 5.19259 16.7308V13.8462C5.19074 12.5507 5.44769 11.2679 5.94836 10.0731C6.01557 9.94639 6.12758 9.84927 6.26252 9.80068C6.39747 9.75208 6.54568 9.75549 6.67825 9.81025C6.81081 9.865 6.91823 9.96718 6.97955 10.0968C7.04086 10.2265 7.05168 10.3744 7.00989 10.5116ZM23.0769 0H29.4231C29.5761 0 29.7228 0.0607829 29.831 0.168977C29.9392 0.277171 30 0.423914 30 0.576923V6.92308C30 7.07609 29.9392 7.22283 29.831 7.33102C29.7228 7.43922 29.5761 7.5 29.4231 7.5C29.2701 7.5 29.1233 7.43922 29.0151 7.33102C28.9069 7.22283 28.8462 7.07609 28.8462 6.92308V1.15385H23.0769C22.9239 1.15385 22.7772 1.09306 22.669 0.984869C22.5608 0.876675 22.5 0.729933 22.5 0.576923C22.5 0.423914 22.5608 0.277171 22.669 0.168977C22.7772 0.0607829 22.9239 0 23.0769 0ZM29.4231 22.5C29.2701 22.5 29.1233 22.5608 29.0151 22.669C28.9069 22.7772 28.8462 22.9239 28.8462 23.0769V28.8462H23.0769C22.9239 28.8462 22.7772 28.9069 22.669 29.0151C22.5608 29.1233 22.5 29.2701 22.5 29.4231C22.5 29.5761 22.5608 29.7228 22.669 29.831C22.7772 29.9392 22.9239 30 23.0769 30H29.4231C29.5761 30 29.7228 29.9392 29.831 29.831C29.9392 29.7228 30 29.5761 30 29.4231V23.0769C30 22.9239 29.9392 22.7772 29.831 22.669C29.7228 22.5608 29.5761 22.5 29.4231 22.5ZM1.15385 28.8462H6.92308C7.07609 28.8462 7.22283 28.9069 7.33102 29.0151C7.43922 29.1233 7.5 29.2701 7.5 29.4231C7.5 29.5761 7.43922 29.7228 7.33102 29.831C7.22283 29.9392 7.07609 30 6.92308 30H0.576923C0.423914 30 0.277171 29.9392 0.168977 29.831C0.0607829 29.7228 0 29.5761 0 29.4231V23.0769C0 22.9239 0.0607829 22.7772 0.168977 22.669C0.277171 22.5608 0.423914 22.5 0.576923 22.5C0.729933 22.5 0.876675 22.5608 0.984869 22.669C1.09306 22.7772 1.15385 22.9239 1.15385 23.0769V28.8462Z" fill="url(#paint0_linear_1764_4287)"/>
<defs>
<linearGradient id="paint0_linear_1764_4287" x1="-3.42499e-08" y1="15" x2="29.4795" y2="11.083" gradientUnits="userSpaceOnUse">
<stop stop-color="#D6A238"/>
<stop offset="1" stop-color="#96481B"/>
</linearGradient>
</defs>
</svg>
