<svg width="26" height="26" viewBox="0 0 26 26" fill="none" xmlns="http://www.w3.org/2000/svg">
<circle cx="13" cy="13" r="13" fill="white"/>
<path d="M13 25C19.6274 25 25 19.6274 25 13C25 6.37258 19.6274 1 13 1C6.37258 1 1 6.37258 1 13C1 19.6274 6.37258 25 13 25Z" fill="#F0F0F0"/>
<path d="M24.9999 13C24.9999 7.84043 21.7434 3.44191 17.1738 1.7464V24.2537C21.7434 22.5581 24.9999 18.1596 24.9999 13V13Z" fill="#D80027"/>
<path d="M1 13C1 18.1596 4.25655 22.5581 8.82611 24.2536V1.7464C4.25655 3.44191 1 7.84043 1 13Z" fill="#0052B4"/>
</svg>
