<svg width="26" height="26" viewBox="0 0 26 26" fill="none" xmlns="http://www.w3.org/2000/svg">
<circle cx="13" cy="13" r="13" fill="white"/>
<path d="M13 25C19.6272 25 25 19.6267 25 13C25 6.37328 19.6277 1 13 1C6.37234 1 1 6.37328 1 13C1 19.6267 6.37281 25 13 25Z" fill="#F0F0F0"/>
<path d="M12.9998 1C10.7427 0.999252 8.53123 1.63507 6.6192 2.83444C4.70718 4.03381 3.17216 5.7481 2.19043 7.78047H23.8087C22.827 5.74817 21.2921 4.03392 19.3801 2.83456C17.4682 1.6352 15.2568 0.99934 12.9998 1V1Z" fill="#FF9811"/>
<path d="M13.0003 25C15.2573 25.0008 17.4688 24.3651 19.3808 23.1658C21.2928 21.9665 22.8279 20.2523 23.8097 18.22H2.19141C3.17317 20.2522 4.70814 21.9664 6.62007 23.1657C8.532 24.3649 10.7434 25.0007 13.0003 25V25Z" fill="#6DA544"/>
<path d="M13 17.1719C13.8251 17.1719 14.6317 16.9272 15.3178 16.4688C16.0038 16.0104 16.5386 15.3588 16.8543 14.5965C17.1701 13.8342 17.2527 12.9954 17.0917 12.1861C16.9307 11.3768 16.5334 10.6335 15.95 10.05C15.3665 9.46659 14.6232 9.06926 13.8139 8.90829C13.0046 8.74732 12.1658 8.82993 11.4035 9.14569C10.6412 9.46145 9.98962 9.99617 9.53121 10.6822C9.0728 11.3683 8.82812 12.1749 8.82812 13C8.82813 14.1065 9.26766 15.1676 10.05 15.95C10.8324 16.7323 11.8936 17.1719 13 17.1719V17.1719Z" fill="#0052B4"/>
<path d="M13.0002 15.6072C13.5157 15.6068 14.0194 15.4536 14.4479 15.167C14.8763 14.8804 15.2101 14.4731 15.4071 13.9968C15.6041 13.5205 15.6555 12.9965 15.5548 12.4909C15.454 11.9854 15.2056 11.5211 14.8411 11.1567C14.4765 10.7923 14.012 10.5442 13.5065 10.4437C13.0009 10.3433 12.4769 10.3949 12.0007 10.5922C11.5245 10.7895 11.1174 11.1235 10.831 11.5521C10.5446 11.9807 10.3917 12.4845 10.3916 13C10.3916 13.3425 10.4591 13.6816 10.5902 13.998C10.7213 14.3145 10.9135 14.6019 11.1557 14.8441C11.398 15.0862 11.6856 15.2782 12.002 15.4091C12.3185 15.5401 12.6577 15.6074 13.0002 15.6072V15.6072Z" fill="#F0F0F0"/>
<path d="M12.9996 9.78064L13.8044 11.6088L15.7877 11.3889L14.6093 13L15.7872 14.6069L13.8039 14.3931L13 16.2213L12.1952 14.3931L10.2119 14.6069L11.3904 13L10.2124 11.3931L12.1957 11.6069L12.9996 9.78064Z" fill="#0052B4"/>
</svg>
