<svg width="24" height="24" viewBox="0 0 24 24" fill="none" xmlns="http://www.w3.org/2000/svg">
<path d="M5.60005 13.6001C6.48373 13.6001 7.2001 12.8837 7.2001 12.0001C7.2001 11.1164 6.48373 10.4 5.60005 10.4C4.71637 10.4 4 11.1164 4 12.0001C4 12.8837 4.71637 13.6001 5.60005 13.6001Z" fill="#151515"/>
<path d="M12.0004 13.6001C12.8841 13.6001 13.6005 12.8837 13.6005 12.0001C13.6005 11.1164 12.8841 10.4 12.0004 10.4C11.1168 10.4 10.4004 11.1164 10.4004 12.0001C10.4004 12.8837 11.1168 13.6001 12.0004 13.6001Z" fill="#151515"/>
<path d="M18.4008 13.6001C19.2845 13.6001 20.0009 12.8837 20.0009 12.0001C20.0009 11.1164 19.2845 10.4 18.4008 10.4C17.5171 10.4 16.8008 11.1164 16.8008 12.0001C16.8008 12.8837 17.5171 13.6001 18.4008 13.6001Z" fill="#151515"/>
</svg>
