<svg width="24" height="24" viewBox="0 0 24 24" fill="none" xmlns="http://www.w3.org/2000/svg">
<path opacity="0.4" d="M12.0001 13.1111C15.1067 13.1111 17.6252 10.6238 17.6252 7.55556C17.6252 4.48731 15.1067 2 12.0001 2C8.89343 2 6.375 4.48731 6.375 7.55556C6.375 10.6238 8.89343 13.1111 12.0001 13.1111Z" fill="url(#paint0_linear_2026_491)"/>
<path d="M20.9902 18.6758C20.9953 18.5968 20.9953 18.5175 20.9902 18.4384C20.968 18.1462 20.8851 17.8608 20.7461 17.5982C20.1993 16.5297 18.6663 16.0457 17.3871 15.7717C16.4745 15.5817 15.5472 15.4596 14.6139 15.4064L13.6375 15.3334H13.1981H12.6512H11.3428H10.796H10.3566L9.3801 15.4064C8.44686 15.4596 7.51958 15.5817 6.60695 15.7717C5.32779 16.0092 3.79474 16.5023 3.24792 17.5982C3.10898 17.8608 3.02607 18.1462 3.00381 18.4384C2.99873 18.5175 2.99873 18.5968 3.00381 18.6758C2.99912 18.7549 2.99912 18.8342 3.00381 18.9133C3.03037 19.203 3.11657 19.4852 3.25769 19.7443C3.8045 20.8128 5.33755 21.2968 6.61672 21.5708C7.53105 21.7519 8.45762 21.874 9.38987 21.9361L10.3663 22H10.6007H10.8057H13.2078H13.4129H13.6472L14.6237 21.9361C15.556 21.874 16.4825 21.7519 17.3969 21.5708C18.676 21.3242 20.2091 20.8402 20.7559 19.7443C20.8904 19.477 20.9731 19.1894 21 18.895C21.0012 18.8218 20.998 18.7487 20.9902 18.6758Z" fill="url(#paint1_linear_2026_491)"/>
<defs>
<linearGradient id="paint0_linear_2026_491" x1="6.375" y1="7.55556" x2="17.4252" y2="6.06893" gradientUnits="userSpaceOnUse">
<stop stop-color="#D6A238"/>
<stop offset="1" stop-color="#96481B"/>
</linearGradient>
<linearGradient id="paint1_linear_2026_491" x1="3" y1="18.6667" x2="18.9477" y2="12.9454" gradientUnits="userSpaceOnUse">
<stop stop-color="#D6A238"/>
<stop offset="1" stop-color="#96481B"/>
</linearGradient>
</defs>
</svg>
