<svg width="24" height="24" viewBox="0 0 24 24" fill="none" xmlns="http://www.w3.org/2000/svg">
<g opacity="0.3">
<path opacity="0.4" d="M12.0001 13.1111C15.1067 13.1111 17.6252 10.6238 17.6252 7.55556C17.6252 4.48731 15.1067 2 12.0001 2C8.89343 2 6.375 4.48731 6.375 7.55556C6.375 10.6238 8.89343 13.1111 12.0001 13.1111Z" fill="#656565"/>
<path d="M20.9902 18.6757C20.9953 18.5966 20.9953 18.5174 20.9902 18.4383C20.968 18.146 20.8851 17.8607 20.7461 17.5981C20.1993 16.5296 18.6663 16.0456 17.3871 15.7716C16.4745 15.5816 15.5472 15.4595 14.6139 15.4063L13.6375 15.3333H13.1981H12.6512H11.3428H10.796H10.3566L9.3801 15.4063C8.44686 15.4595 7.51958 15.5816 6.60695 15.7716C5.32779 16.0091 3.79474 16.5022 3.24792 17.5981C3.10898 17.8607 3.02607 18.146 3.00381 18.4383C2.99873 18.5174 2.99873 18.5966 3.00381 18.6757C2.99912 18.7548 2.99912 18.8341 3.00381 18.9132C3.03037 19.2029 3.11657 19.4851 3.25769 19.7442C3.8045 20.8127 5.33755 21.2967 6.61672 21.5707C7.53105 21.7518 8.45762 21.8738 9.38987 21.936L10.3663 21.9999H10.6007H10.8057H13.2078H13.4129H13.6472L14.6237 21.936C15.556 21.8738 16.4825 21.7518 17.3969 21.5707C18.676 21.3241 20.2091 20.8401 20.7559 19.7442C20.8904 19.4769 20.9731 19.1893 21 18.8949C21.0012 18.8217 20.998 18.7485 20.9902 18.6757Z" fill="#656565"/>
</g>
</svg>
