<svg width="24" height="24" viewBox="0 0 24 24" fill="none" xmlns="http://www.w3.org/2000/svg">
<path d="M12 24C18.6274 24 24 18.6274 24 12C24 5.37258 18.6274 0 12 0C5.37258 0 0 5.37258 0 12C0 18.6274 5.37258 24 12 24Z" fill="#E95534"/>
<path d="M17.4749 17.4749C17.025 17.9249 16.2749 17.9249 15.8249 17.4749L12 13.65L8.17499 17.4749C7.72501 17.9249 6.97497 17.9249 6.52499 17.4749C6.075 17.025 6.075 16.2749 6.52499 15.8249L10.35 12L6.52499 8.17499C6.075 7.72501 6.075 6.97497 6.52499 6.52499C6.97497 6.075 7.72501 6.075 8.17499 6.52499L12 10.35L15.8249 6.52499C16.2749 6.075 17.025 6.075 17.4749 6.52499C17.9249 6.97497 17.9249 7.72501 17.4749 8.17499L13.65 12L17.4749 15.8249C17.9249 16.2749 17.9249 17.0249 17.4749 17.4749Z" fill="white"/>
</svg>
