<svg width="40" height="40" viewBox="0 0 40 40" fill="none" xmlns="http://www.w3.org/2000/svg">
<circle cx="20" cy="20" r="20" fill="#1E65FF"/>
<path d="M19.9995 8.00005C18.2344 8.00008 16.5555 8.38008 15.045 9.06562C14.8382 9.1595 14.751 9.40639 14.8528 9.60932L15.5677 11.0413C15.6637 11.2336 15.8944 11.3157 16.0903 11.2272C17.2843 10.6941 18.6058 10.4007 19.9995 10.4007C25.306 10.4007 29.5983 14.6931 29.5983 19.9996C29.5983 21.9957 28.9839 23.8404 27.9422 25.3767L26.6813 24.115C26.5951 24.0287 26.4743 23.9863 26.3532 24.0001C26.151 24.0235 25.9987 24.195 25.9993 24.3985V28.7983C25.9985 29.0192 26.1768 29.199 26.3977 29.1999H30.7967C31.1561 29.2029 31.3365 28.7668 31.0803 28.5148L29.6624 27.0969C31.1252 25.1082 31.999 22.6557 31.999 19.9995C31.999 13.3771 26.6219 7.99998 19.9995 8V8.00005ZM9.19839 10.7991C8.84269 10.7993 8.66408 11.2288 8.91481 11.4812L10.3335 12.8999C8.87043 14.8887 8 17.3429 8 19.9996C8 26.622 13.3771 31.9991 19.9995 31.9991C21.7647 31.9991 23.4435 31.6159 24.954 30.9303C25.1605 30.8362 25.2473 30.5893 25.1454 30.3866L24.4282 28.9547C24.3324 28.7641 24.1038 28.6823 23.9087 28.7687C22.7148 29.3018 21.3932 29.5984 19.9995 29.5984C14.6931 29.5984 10.4007 25.306 10.4007 19.9996C10.4007 18.0041 11.0115 16.1572 12.0522 14.6209L13.3177 15.8833C13.5701 16.1341 13.9996 15.9554 13.9998 15.5997V11.2007C14.0006 10.9786 13.8203 10.7983 13.5982 10.7991H9.19839ZM19.9987 13.599C16.469 13.599 13.6006 16.4706 13.6006 20.0003C13.6006 23.5301 16.469 26.3985 19.9987 26.3985C23.5285 26.3985 26.4 23.5301 26.4 20.0003C26.4 16.4706 23.5285 13.599 19.9987 13.599ZM19.9971 15.1966C20.1972 15.1966 20.3971 15.3298 20.3971 15.5966V16.4442C21.3075 16.6301 21.9978 17.4393 21.9978 18.4027C22.0099 18.948 21.1858 18.948 21.1979 18.4027C21.1979 17.7353 20.6661 17.2043 19.9987 17.2043C19.3312 17.2043 18.8003 17.7353 18.8003 18.4027C18.8003 19.0702 19.3312 19.6019 19.9987 19.6019C21.0985 19.6019 21.9978 20.5036 21.9978 21.6034C21.9978 22.5668 21.3075 23.3768 20.3971 23.5627V24.4025C20.3971 24.9359 19.5971 24.9359 19.5971 24.4025V23.5619C18.6883 23.3748 18.0003 22.5657 18.0003 21.6034C18.0119 21.0818 18.7882 21.0818 18.8003 21.6034C18.8003 22.2708 19.3312 22.8026 19.9987 22.8026C20.6661 22.8026 21.1979 22.2708 21.1979 21.6034C21.1979 20.9359 20.6661 20.4019 19.9987 20.4019C18.8989 20.4019 18.0003 19.5025 18.0003 18.4027C18.0003 17.4404 18.6883 16.6321 19.5971 16.445V15.5966C19.5971 15.3299 19.7971 15.1966 19.9971 15.1966Z" fill="white"/>
</svg>
