<svg width="8" height="6" viewBox="0 0 8 6" fill="none" xmlns="http://www.w3.org/2000/svg">
<path d="M7.28016 1.38273C7.28229 1.28576 7.25418 1.19053 7.19969 1.11028C7.1452 1.03003 7.06702 0.96876 6.9761 0.934977C6.88517 0.901194 6.78599 0.89658 6.69232 0.921777C6.59865 0.946973 6.5152 1.00073 6.4535 1.07557L4.00715 3.93117L1.56166 1.07557C1.52361 1.0238 1.4753 0.980441 1.41972 0.948213C1.36413 0.915986 1.30248 0.895581 1.23865 0.888278C1.17481 0.880975 1.11017 0.886931 1.04875 0.905772C0.98732 0.924614 0.930429 0.955935 0.881669 0.997774C0.832909 1.03961 0.793356 1.09107 0.765404 1.14892C0.737452 1.20677 0.721752 1.26977 0.719275 1.33397C0.716798 1.39818 0.727567 1.4622 0.750979 1.52203C0.774391 1.58186 0.809903 1.63622 0.855294 1.68169L3.65259 4.9511C3.69641 5.00244 3.75079 5.04367 3.81208 5.07194C3.87337 5.10021 3.94008 5.11485 4.00758 5.11485C4.07507 5.11485 4.14178 5.10021 4.20307 5.07194C4.26436 5.04367 4.3188 5.00244 4.36261 4.9511L7.1626 1.68169C7.23596 1.5991 7.27767 1.49317 7.28027 1.38273L7.28016 1.38273Z" fill="#151515"/>
</svg>
