<svg width="48" height="48" viewBox="0 0 48 48" fill="none" xmlns="http://www.w3.org/2000/svg">
<circle cx="24" cy="24" r="23.5" fill="white" stroke="#E3E3E3"/>
<path d="M16 16H22V22H16V16ZM32 16V22H26V16H32ZM26 27H28V25H26V23H28V25H30V23H32V25H30V27H32V30H30V32H28V30H25V32H23V28H26V27ZM28 27V30H30V27H28ZM16 32V26H22V32H16ZM18 18V20H20V18H18ZM28 18V20H30V18H28ZM18 28V30H20V28H18ZM16 23H18V25H16V23ZM21 23H25V27H23V25H21V23ZM23 18H25V22H23V18ZM14 14V18H12V14C12 13.4696 12.2107 12.9609 12.5858 12.5858C12.9609 12.2107 13.4696 12 14 12H18V14H14ZM34 12C34.5304 12 35.0391 12.2107 35.4142 12.5858C35.7893 12.9609 36 13.4696 36 14V18H34V14H30V12H34ZM14 30V34H18V36H14C13.4696 36 12.9609 35.7893 12.5858 35.4142C12.2107 35.0391 12 34.5304 12 34V30H14ZM34 34V30H36V34C36 34.5304 35.7893 35.0391 35.4142 35.4142C35.0391 35.7893 34.5304 36 34 36H30V34H34Z" fill="#151515"/>
</svg>
