<svg width="20" height="20" viewBox="0 0 20 20" fill="none" xmlns="http://www.w3.org/2000/svg">
<path d="M10 20C15.5228 20 20 15.5228 20 10C20 4.47715 15.5228 0 10 0C4.47715 0 0 4.47715 0 10C0 15.5228 4.47715 20 10 20Z" fill="#29CD7E"/>
<path d="M15.4379 7.12484L8.93795 14.2499C8.50043 14.7499 7.75046 14.7499 7.31294 14.2499L4.56294 11.1874C4.18796 10.7498 4.18796 10.0624 4.62543 9.62484C5.06295 9.24985 5.75043 9.24985 6.18795 9.68733L8.12545 11.8748L13.8129 5.68735C14.2504 5.24983 14.9379 5.18734 15.3754 5.62486C15.8129 5.99984 15.8129 6.74985 15.4379 7.12484Z" fill="white"/>
</svg>
