<svg width="25" height="24" viewBox="0 0 25 24" fill="none" xmlns="http://www.w3.org/2000/svg">
<path d="M12.5 24C19.1274 24 24.5 18.6274 24.5 12C24.5 5.37258 19.1274 0 12.5 0C5.87258 0 0.5 5.37258 0.5 12C0.5 18.6274 5.87258 24 12.5 24Z" fill="#29CD7E"/>
<path d="M19.0251 8.54961L11.2252 17.0996C10.7001 17.6996 9.80017 17.6996 9.27514 17.0996L5.97514 13.4246C5.52516 12.8996 5.52516 12.0746 6.05013 11.5496C6.57515 11.0996 7.40012 11.0996 7.92515 11.6246L10.2501 14.2496L17.0751 6.82462C17.6001 6.2996 18.4251 6.22461 18.9501 6.74963C19.4751 7.19961 19.4751 8.09963 19.0251 8.54961Z" fill="white"/>
</svg>
