<svg width="24" height="24" viewBox="0 0 24 24" fill="none" xmlns="http://www.w3.org/2000/svg">
<path fill-rule="evenodd" clip-rule="evenodd" d="M21.9964 8.37513H17.7618C15.7911 8.37859 14.1947 9.93514 14.1911 11.8566C14.1884 13.7823 15.7867 15.3458 17.7618 15.3484H22V15.6543C22 19.0136 19.9636 21 16.5173 21H7.48356C4.03644 21 2 19.0136 2 15.6543V8.33786C2 4.97862 4.03644 3 7.48356 3H16.5138C19.96 3 21.9964 4.97862 21.9964 8.33786V8.37513ZM6.73956 8.36733H12.3796H12.3831H12.3902C12.8124 8.36559 13.1538 8.03019 13.152 7.61765C13.1502 7.20598 12.8053 6.87318 12.3831 6.87491H6.73956C6.32 6.87664 5.97956 7.20858 5.97778 7.61852C5.976 8.03019 6.31733 8.36559 6.73956 8.36733Z" fill="url(#paint0_linear_2026_841)"/>
<path opacity="0.4" d="M16.0374 12.2966C16.2465 13.2478 17.0805 13.917 18.0326 13.8996H21.2825C21.6787 13.8996 22 13.5715 22 13.166V10.6344C21.9991 10.2297 21.6787 9.90077 21.2825 9.8999H17.9561C16.8731 9.90338 15.9983 10.8024 16 11.9102C16 12.0398 16.0128 12.1695 16.0374 12.2966Z" fill="url(#paint1_linear_2026_841)"/>
<path d="M18 12.8999C18.5523 12.8999 19 12.4522 19 11.8999C19 11.3476 18.5523 10.8999 18 10.8999C17.4477 10.8999 17 11.3476 17 11.8999C17 12.4522 17.4477 12.8999 18 12.8999Z" fill="url(#paint2_linear_2026_841)"/>
<defs>
<linearGradient id="paint0_linear_2026_841" x1="2" y1="12" x2="21.5734" y2="9.11029" gradientUnits="userSpaceOnUse">
<stop stop-color="#D6A238"/>
<stop offset="1" stop-color="#96481B"/>
</linearGradient>
<linearGradient id="paint1_linear_2026_841" x1="16" y1="11.8999" x2="21.7708" y2="10.7497" gradientUnits="userSpaceOnUse">
<stop stop-color="#D6A238"/>
<stop offset="1" stop-color="#96481B"/>
</linearGradient>
<linearGradient id="paint2_linear_2026_841" x1="17" y1="11.8999" x2="18.9653" y2="11.6388" gradientUnits="userSpaceOnUse">
<stop stop-color="#D6A238"/>
<stop offset="1" stop-color="#96481B"/>
</linearGradient>
</defs>
</svg>
