<svg width="25" height="24" viewBox="0 0 25 24" fill="none" xmlns="http://www.w3.org/2000/svg">
<g opacity="0.3">
<path fill-rule="evenodd" clip-rule="evenodd" d="M22.4964 8.37513H18.2618C16.2911 8.37859 14.6947 9.93514 14.6911 11.8566C14.6884 13.7823 16.2867 15.3458 18.2618 15.3484H22.5V15.6543C22.5 19.0136 20.4636 21 17.0173 21H7.98356C4.53644 21 2.5 19.0136 2.5 15.6543V8.33786C2.5 4.97862 4.53644 3 7.98356 3H17.0138C20.46 3 22.4964 4.97862 22.4964 8.33786V8.37513ZM7.23956 8.36733H12.8796H12.8831H12.8902C13.3124 8.36559 13.6538 8.03019 13.652 7.61765C13.6502 7.20598 13.3053 6.87318 12.8831 6.87491H7.23956C6.82 6.87664 6.47956 7.20858 6.47778 7.61852C6.476 8.03019 6.81733 8.36559 7.23956 8.36733Z" fill="#656565"/>
<path opacity="0.4" d="M16.5374 12.2967C16.7465 13.2479 17.5805 13.9171 18.5326 13.8997H21.7825C22.1787 13.8997 22.5 13.5716 22.5 13.1661V10.6345C22.4991 10.2298 22.1787 9.90089 21.7825 9.90002H18.4561C17.3731 9.90351 16.4983 10.8025 16.5 11.9103C16.5 12.04 16.5128 12.1696 16.5374 12.2967Z" fill="#656565"/>
<path d="M18.5 12.9C19.0523 12.9 19.5 12.4523 19.5 11.9C19.5 11.3477 19.0523 10.9 18.5 10.9C17.9477 10.9 17.5 11.3477 17.5 11.9C17.5 12.4523 17.9477 12.9 18.5 12.9Z" fill="#656565"/>
</g>
</svg>
